<svg xmlns="http://www.w3.org/2000/svg" width="150" height="45.179" viewBox="0 0 150 45.179">
  <g id="MS_FullColor_2019" transform="translate(-138.91 -156.048)">
    <g id="Group_4" data-name="Group 4" transform="translate(138.91 156.048)">
      <g id="Group_1" data-name="Group 1" transform="translate(0 10.164)">
        <path id="Path_1" data-name="Path 1" d="M222.933,210.315s-1.914-1.549-9.021.684c0,0-11.211,3.235-10.3,6.7,0,0,0,3.464,12.485,5.468,0,0,4.01.548,0,1.732,0,0-15.31,7.381-19.5.911H138.91v2.657h56.318s.82,4,11.3,2.173c0,0,9.934-1.641,15.583-5.833,0,0,3.919-1.6-5.376-4.352,0,0-14.126-1.937-6.744-5.127,0,0,6.107-3.371,11.665-2.733C221.658,212.593,225.394,212.229,222.933,210.315Z" transform="translate(-138.91 -200.139)" fill="#ff8c00"/>
        <path id="Path_2" data-name="Path 2" d="M393.385,209.8s4.552-5.316,1.071-5.469c0,0-10.446-.3-12.644,8.149a12.206,12.206,0,0,1-.323-2.909s0-4.092-3.366-4.513c0,0-1.53-.8-5.929,3.749,0,0-3.1,3.71-1.147-1.492,0,0,4.82-14.918,10.709-20.426a1.349,1.349,0,0,0,.268-2.371,1.688,1.688,0,0,0-2.754-.268,89.076,89.076,0,0,0-11.082,22.567s-2.306,10.442,2.935,6.771c0,0,6.694-7.458,7.114-4.131a14.575,14.575,0,0,0,3.749,8.874,2.96,2.96,0,0,0,3.519-.689s1.11-.726-.8-1.108a4.5,4.5,0,0,1-2.11-2.043c.977.126,2.782-.281,6.013-2.662,0,0,1.66-1.874,1.345,0a3.172,3.172,0,0,0,3.473,3.442s1.607-.076.038-2.065A2.914,2.914,0,0,1,393.385,209.8Zm-1.224-3.135c-.841,1.415-7,5.011-7,5.011-1.224.5-.5-.421-.5-.421,1.826-3.639,7.343-5.049,7.343-5.049C392.641,206.01,392.162,206.661,392.162,206.661Z" transform="translate(-283.326 -183.613)" fill="#ff8c00"/>
        <path id="Path_3" data-name="Path 3" d="M451.758,242.483s-.765-.305-1.568.919l-4.476,6.044s-4.169,2.639-3.48-4.055c0,0,.688-4.972,2.792-3.557,0,0,.65.306.23,3.022,0,0-.382,2.141.421.5,0,0,4.437-8.339,6.771-5.087C452.446,240.265,453.708,242.139,451.758,242.483Z" transform="translate(-330.339 -218.901)" fill="#ff8c00"/>
        <path id="Path_4" data-name="Path 4" d="M479,199.165a1.288,1.288,0,0,1,2.332,0s1,1.3-1.529,4.819c0,0-5.509,9.141-6.464,11.552,0,0-3.482,6.426,0,4.169a89.126,89.126,0,0,0,11.857-8.224s2.792-1.529,1.53,1.071c0,0-1.3,1.865-7.039,6.231a1.964,1.964,0,0,0-.956,2.376s.459,1.8,4.513,0c0,0,4.4-2.563,3.29.114a8.038,8.038,0,0,1-8.454,3.329,2.844,2.844,0,0,1-1.951-2.449s.078-1.185-1.261-.23c0,0-5.929,4.476-6.159-.956a19.184,19.184,0,0,1,3.671-9.562S478.542,201.116,479,199.165Z" transform="translate(-347.102 -192.947)" fill="#ff8c00"/>
      </g>
      <g id="Group_2" data-name="Group 2" transform="translate(52.765)">
        <path id="Path_5" data-name="Path 5" d="M282.006,212.1v2.212l.183.074v-2.306Z" transform="translate(-282.006 -191.42)" fill="#1594e0"/>
        <path id="Path_6" data-name="Path 6" d="M337.276,175.67a2.318,2.318,0,0,1,1.659-.8,2.214,2.214,0,0,1,1.435.591,44.463,44.463,0,0,1,15.86-2.307s-6.561,5.946-.068,8.475c0,0,6.9.82,9.159,2.734A22.832,22.832,0,0,0,371,185.831c.423-.775.813-1.508,1.14-2.152a13.85,13.85,0,0,0-3.6-.75,4.9,4.9,0,0,1-2.666-.889,19.366,19.366,0,0,0-8.475-2.392s-3.144.205-.957-3.212a10.465,10.465,0,0,1,3.964-3.349s1.367-.889.547-1.641c0,0-.235-1.3-6.781-.615,0,0-12.274.287-19.012,4.587,0,0-1.067,1.086-3.937,1.018,0,0-7.587-.205-12.3,2.324a3.824,3.824,0,0,1-2.186,1.23,19.942,19.942,0,0,1-4.306.881s-4.785.349-4.922,3.63a26.109,26.109,0,0,0-5.719.466v2.011a27.71,27.71,0,0,1,3.463-.222s6.971.32,7.587-1.685c0,0,.205-.707-1.163-.775,0,0-2.392-.342.41-.957,0,0,5.811-.836,7.86-2.468,0,0,2.666-1.906,10.321-2.248,0,0,4.374.273,5.6-1.23,0,0,.125-.073.367-.2.611-.932.982-1.444,1-1.465A.663.663,0,0,1,337.276,175.67Z" transform="translate(-294.488 -165.254)" fill="#1594e0"/>
        <path id="Path_7" data-name="Path 7" d="M516.725,156.226s-.889-.957-3.212,1.572a46.3,46.3,0,0,0-10.8,11.346s-.447,1-.93,2.181a2.7,2.7,0,0,1,.865.775c.1.132.789,1.173-.344,3.524a3.807,3.807,0,0,0,1.1-1.423s.684-6.766,10.594-13.328c0,0-1.777,3.964-.957,11.687,0,0,.273.944-.547.779,0,0-2.119-.028-1.435,3.048a2.159,2.159,0,0,1,.068,1.982s-.82,1.572,1.23,3.622c0,0,4.306,5.855,1.641,4.534a65.7,65.7,0,0,0-7.655-4.807,2.137,2.137,0,0,0-3.076,0s-1.709,2.119.889,2.051c0,0,.2-1.025,1.025-.273,0,0,.4.219,1.036.576a3.357,3.357,0,0,1,1.228-.32.983.983,0,0,1,.886.441,1.335,1.335,0,0,1,.061,1.124,51.011,51.011,0,0,1,6.221,4.058s.478,1.435,1.435,1.23c0,0,2.461.547,1.367-3.144,0,0-1.23-5.127-3.554-7.176a1.411,1.411,0,0,1-.342-1.572,1.657,1.657,0,0,0,.273-2.324s-.957-1.025.137-1.3c0,0,1.777.326,1.5-3.425,0,0-1.011-8.4,2.263-13.389C517.689,158.277,518.775,157.183,516.725,156.226Z" transform="translate(-420.741 -156.048)" fill="#1594e0"/>
      </g>
      <path id="Path_8" data-name="Path 8" d="M528.832,256.947a1.509,1.509,0,1,1-1.558,1.5,1.521,1.521,0,0,1,1.549-1.5Zm-.018.3a1.2,1.2,0,0,0,.018,2.4,1.147,1.147,0,0,0,1.146-1.2,1.16,1.16,0,0,0-1.154-1.2Zm-.229,1.981h-.349v-1.5a2.915,2.915,0,0,1,.578-.055.863.863,0,0,1,.523.118.414.414,0,0,1,.146.322.388.388,0,0,1-.312.358v.018a.429.429,0,0,1,.274.366.987.987,0,0,0,.111.367h-.376a1.2,1.2,0,0,1-.119-.358c-.027-.164-.118-.238-.312-.238h-.164Zm.009-.844h.166c.192,0,.348-.064.348-.22,0-.138-.1-.23-.322-.23a.791.791,0,0,0-.192.019v.431Z" transform="translate(-384.07 -219.742)" fill="#002a42"/>
      <g id="Group_3" data-name="Group 3" transform="translate(0 9.678)">
        <path id="Path_9" data-name="Path 9" d="M144.651,195.782l5.194,9.2,5.1-9.113v9.113h5.923V182.295h-4.829l-6.2,11.209-6.014-11.209H138.91v22.691h5.741Z" transform="translate(-138.91 -182.295)" fill="#002a42"/>
        <path id="Path_10" data-name="Path 10" d="M209.158,201.615h7.291l1.367,3.372h6.106l-9.2-22.691H210.8l-9.113,22.691H207.7Zm3.554-9.478,2,5.1H210.8Z" transform="translate(-178.538 -182.295)" fill="#002a42"/>
        <rect id="Rectangle_2" data-name="Rectangle 2" width="5.832" height="22.691" transform="translate(46.386)" fill="#002a42"/>
        <path id="Path_11" data-name="Path 11" d="M336.927,232.218h-6.61a27.576,27.576,0,0,0,6.61,1.744Z" transform="translate(-259.738 -213.81)" fill="#002a42"/>
        <path id="Path_12" data-name="Path 12" d="M294.708,200.7H290V182.295h-6.014v22.691H301.43C296.077,203.378,294.943,201.508,294.708,200.7Z" transform="translate(-230.491 -182.295)" fill="#002a42"/>
      </g>
    </g>
  </g>
</svg>
